<?xml version="1.0" encoding="utf-8"?>
<!-- Generator: Adobe Illustrator 28.0.0, SVG Export Plug-In . SVG Version: 6.00 Build 0)  -->
<svg version="1.1" id="Layer_1" xmlns="http://www.w3.org/2000/svg" xmlns:xlink="http://www.w3.org/1999/xlink" x="0px" y="0px"
	 viewBox="0 0 500 500" style="enable-background:new 0 0 500 500;" xml:space="preserve">
<style type="text/css">
	.st0{fill:#082C49;}
	.st1{fill:#F5AD2A;}
</style>
<polygon class="st0" points="210.17,215.18 196.23,269.57 231.34,269.57 245.28,215.18 "/>
<g>
	<polygon class="st0" points="227.92,145.94 220.38,175.36 255.49,175.36 263.03,145.94 	"/>
</g>
<polygon class="st0" points="178.68,145.94 329.57,145.94 337.1,116.57 186.21,116.57 "/>
<g>
	<path class="st1" d="M329.73,206.14l-19.99,1.14c-0.66,0.04-1.17-0.58-1.01-1.22l5.57-21.74c0.12-0.45,0.54-0.76,1.01-0.74
		l14.41,0.82c1.33,0.05,2.25-1.34,1.66-2.55c-4.97-10.15-15.4-17.14-27.45-17.14c-8.46,0-14.72,5.32-21.64,8.99
		c-5.28,2.8-10.71,4.63-15.96,5.76h-83.2l-0.73,2.82h30.84c1.34,0,2.33,1.27,1.99,2.57c-0.23,0.91-1.05,1.55-1.99,1.55h-31.89
		l-0.81,3.16h15.1c1.34,0,2.33,1.27,1.99,2.57c-0.23,0.91-1.05,1.55-1.99,1.55h-16.16l-0.81,3.16h42.53c1.34,0,2.33,1.27,1.99,2.57
		c-0.23,0.91-1.05,1.55-1.99,1.55h-43.58l-0.81,3.16h24.86c1.34,0,2.33,1.27,1.99,2.57c-0.23,0.91-1.05,1.55-1.99,1.55h-25.92
		l-0.73,2.82h83.71c7.01,0.64,14.22,1.99,20.45,4.69c8.18,3.56,14.09,9.67,23.49,10.04c12.58,0.5,23.56-6.62,28.7-17.12
		C331.98,207.49,331.07,206.09,329.73,206.14z"/>
	<path class="st1" d="M174.77,186.41h3.73c0.94,0,1.76-0.64,1.99-1.54c0.33-1.3-0.65-2.57-1.99-2.57h-3.73
		c-1.01,0-1.87,0.73-2.03,1.73v0C172.54,185.28,173.5,186.41,174.77,186.41z"/>
	<path class="st1" d="M176.63,193.67c0.94,0,1.76-0.64,1.99-1.54c0.33-1.3-0.65-2.57-1.99-2.57h-11.67c-1.01,0-1.87,0.73-2.03,1.73
		c-0.2,1.25,0.76,2.38,2.03,2.38H176.63z"/>
	<path class="st1" d="M174.76,196.81h-1.95c-1.01,0-1.87,0.73-2.03,1.73c-0.2,1.25,0.76,2.38,2.03,2.38h1.95
		c0.94,0,1.76-0.64,1.99-1.54v0C177.09,198.08,176.1,196.81,174.76,196.81z"/>
	<path class="st1" d="M172.98,204.07h-7.01c-1.01,0-1.87,0.73-2.03,1.73c-0.2,1.25,0.76,2.38,2.03,2.38h7.01
		c0.94,0,1.76-0.64,1.99-1.54C175.31,205.33,174.33,204.07,172.98,204.07z"/>
</g>
<path class="st1" d="M99.34,308.38v10.57H65.56v8.48h32.17l-0.07,10.3h-32.1v15.55H51.89v-44.89H99.34z"/>
<path class="st1" d="M145.23,345.67h-29.68l-3.84,7.6H96.1l23.76-44.89h21.27l23.49,44.89h-15.55L145.23,345.67z M131.77,318.82
	h-2.69l-8.68,17.03h20.05L131.77,318.82z"/>
<path class="st1" d="M178.47,338.4c0,2.49,0.27,3.57,1.35,4.24c1.48,0.88,1.61,0.88,12.38,0.94c14.67-0.07,14.67-0.07,14.67-3.97
	c0-2.69-1.01-3.36-5.38-3.43c-1.55,0-5.99-0.2-10.77-0.4c-4.98-0.27-9.42-0.47-10.9-0.47c-6.53-0.2-9.69-1.14-11.71-3.43
	c-1.68-2.02-2.49-4.91-2.49-9.42c0-6.66,1.55-10.7,4.71-12.45c3.5-1.88,7.4-2.29,23.62-2.29c12.52,0,17.23,0.61,20.46,2.49
	c2.89,1.82,4.11,4.71,4.11,10.23c0,0.27,0,1.21-0.07,2.09h-13.19c-0.07-2.22-0.27-2.83-1.01-3.5c-1.08-0.88-2.62-1.01-12.92-1.01
	c-11.51,0-12.45,0.27-12.45,3.57c0,1.61,0.61,2.49,1.88,2.89c1.21,0.34,4.71,0.54,14.54,0.81c14.47,0.4,17.5,0.81,20.32,2.49
	c3.3,1.95,4.51,5.05,4.51,11.44c0,7.6-1.75,11.44-6.12,13.19c-2.76,1.21-8.14,1.55-22.14,1.55c-13.46,0-18.98-0.61-22.21-2.42
	c-3.36-1.88-4.44-4.58-4.44-10.97v-2.15H178.47z"/>
<path class="st1" d="M276.58,308.38v11.44h-19.99v33.45h-14.33v-33.45h-19.99v-11.44H276.58z"/>
<path class="st0" d="M344.34,308.38v5.25h-22.41v39.64h-5.99v-39.64H293.4v-5.25H344.34z"/>
<path class="st0" d="M348.44,308.38h43.95v5.25h-37.96v13.73h36.34v5.25h-36.34v15.41h38.02v5.25h-44.01V308.38z"/>
<path class="st0" d="M448.11,337.93c-0.34,8.61-0.67,10.3-2.76,12.32c-2.62,2.49-6.86,3.16-20.73,3.16
	c-17.7,0-22.41-0.67-25.37-3.57c-2.56-2.49-3.5-7.47-3.5-18.31c0-12.45,1.08-17.77,4.17-20.26c2.09-1.68,4.51-2.22,10.83-2.69
	c2.96-0.13,9.02-0.34,12.92-0.34c7.87,0,13.26,0.4,16.62,1.14c3.37,0.81,6.06,3.16,6.66,5.99c0.47,1.82,0.54,2.49,0.61,7.87h-5.59
	v-1.55c-0.07-4.31-0.67-5.72-3.09-6.73c-2.22-0.88-7.4-1.35-15.48-1.35c-11.85,0-17.3,0.61-19.11,2.02
	c-1.68,1.41-2.49,5.72-2.49,13.53c0,3.7,0.4,10.9,0.67,13.12c0.54,3.43,2.02,4.85,5.79,5.18c2.96,0.34,9.02,0.54,14.54,0.54
	c3.84,0,11.85-0.34,13.59-0.54c3.3-0.4,4.78-1.21,5.38-3.03c0.4-1.14,0.4-1.14,0.54-6.53H448.11z"/>
<g>
	<path class="st0" d="M81.37,370.83l10.97,11.01h0.39v-11.01h1.68v12.55h-2.84l-10.94-10.97h-0.38v10.97h-1.68v-12.55H81.37z"/>
	<path class="st0" d="M101.93,370.83h12.29v1.47H103.6v3.84h10.16v1.47H103.6v4.31h10.63v1.47h-12.31V370.83z"/>
	<path class="st0" d="M121.06,370.83h12.29v1.47h-10.61v3.84h10.16v1.47h-10.16v4.31h10.63v1.47h-12.31V370.83z"/>
	<path class="st0" d="M140.19,370.83h8.66c3.88,0,4.84,0.21,5.78,1.2c0.83,0.88,1.09,2.11,1.09,5.06c0,2.79-0.4,4.37-1.34,5.25
		c-0.9,0.85-1.86,1.03-5.4,1.03h-8.79V370.83z M148.9,381.92c2.41,0,2.5,0,3.2-0.17c1.35-0.32,1.9-1.67,1.9-4.72
		c0-1.94-0.26-3.28-0.75-3.9c-0.4-0.47-0.96-0.7-2.03-0.79c-0.4-0.04-0.87-0.04-2.41-0.04h-6.94v9.62H148.9z"/>
	<path class="st0" d="M173.31,370.83h11.78v1.47h-10.11v3.99h9.65v1.47h-9.65v5.63h-1.68V370.83z"/>
	<path class="st0" d="M193.35,370.83v12.55h-1.68v-12.55H193.35z"/>
	<path class="st0" d="M203.11,370.83l5.44,5.29l5.51-5.29h2.48l-6.46,6l6.79,6.55h-2.39l-6.02-5.82l-5.93,5.82h-2.47l6.93-6.55
		l-6.29-6H203.11z"/>
	<path class="st0" d="M225.95,381.26v2.13h-2.05v-2.13H225.95z M225.67,370.83v9h-1.51v-9H225.67z"/>
	<path class="st0" d="M255.43,370.83v6.49c-0.02,3.14-0.04,3.56-0.32,4.24c-0.62,1.52-1.79,1.86-6.36,1.86c-2.69,0-3.9-0.26-4.55-1
		c-0.58-0.66-0.73-1.41-0.75-3.65h1.58v0.41c0.04,1.77,0.21,2.16,1.02,2.47c0.49,0.19,1.39,0.26,3.05,0.26
		c0.4,0,2.35-0.07,2.71-0.09c1.09-0.09,1.54-0.36,1.77-1.02c0.17-0.51,0.19-0.83,0.19-3.48v-6.49H255.43z"/>
	<path class="st0" d="M264.36,370.83v6.17c0,3.58,0.02,3.73,0.36,4.22c0.36,0.53,1.56,0.7,4.95,0.7c4.08,0,5.31-0.15,5.76-0.68
		c0.36-0.41,0.38-0.62,0.39-4.24v-6.17h1.67v6.17c-0.02,3.88-0.08,4.33-0.71,5.23c-0.96,1.02-1.51,1.11-6.68,1.19
		c-5.12-0.04-5.61-0.13-6.55-1.05c-0.79-0.96-0.85-1.37-0.86-5.36v-6.17H264.36z"/>
	<path class="st0" d="M286.18,379.47v0.26c0.04,1.43,0.15,1.71,0.73,1.98c0.49,0.21,1.92,0.3,4.57,0.3c1.64,0,3.31-0.11,4.03-0.28
		c0.81-0.17,1.2-0.79,1.2-1.86c0-1.07-0.23-1.56-0.85-1.79c-0.62-0.22-0.62-0.22-6.81-0.22c-3.31,0-4.54-0.94-4.54-3.5
		c0-1.13,0.32-1.96,0.94-2.46c0.62-0.51,1.24-0.72,2.6-0.88c0.94-0.11,2.67-0.21,3.95-0.21c2.82,0,4.22,0.26,5.08,0.96
		c0.72,0.56,0.92,1.18,0.94,2.8h-1.67v-0.19c0-0.92-0.09-1.24-0.4-1.47c-0.6-0.49-1.75-0.68-4.07-0.68c-3.22,0-4.69,0.23-5.27,0.79
		c-0.26,0.26-0.39,0.72-0.39,1.36c0,1.11,0.21,1.49,1,1.73c0.6,0.21,1.56,0.28,3.29,0.3c0.81,0,0.81,0,4.08,0.02
		c1.79,0,2.64,0.3,3.24,1.11c0.39,0.53,0.58,1.24,0.58,2.2c0,1.54-0.43,2.49-1.39,3.01c-0.92,0.49-2.73,0.68-6.62,0.68
		c-2.77,0-3.86-0.13-4.65-0.58c-0.92-0.51-1.22-1.2-1.22-2.8c0-0.04,0-0.34,0.02-0.56H286.18z"/>
	<path class="st0" d="M318.92,370.83v1.47h-6.27v11.09h-1.68V372.3h-6.3v-1.47H318.92z"/>
	<path class="st0" d="M350.24,379.1c-0.09,2.41-0.19,2.88-0.77,3.45c-0.73,0.7-1.92,0.88-5.8,0.88c-4.95,0-6.27-0.19-7.1-1
		c-0.71-0.7-0.98-2.09-0.98-5.12c0-3.48,0.3-4.97,1.17-5.66c0.58-0.47,1.26-0.62,3.03-0.75c0.83-0.04,2.52-0.09,3.61-0.09
		c2.2,0,3.71,0.11,4.65,0.32c0.94,0.23,1.69,0.88,1.86,1.68c0.13,0.51,0.15,0.7,0.17,2.2h-1.56v-0.43c-0.02-1.2-0.19-1.6-0.87-1.88
		c-0.62-0.24-2.07-0.38-4.33-0.38c-3.31,0-4.84,0.17-5.34,0.56c-0.47,0.39-0.7,1.6-0.7,3.78c0,1.03,0.11,3.05,0.19,3.67
		c0.15,0.96,0.56,1.35,1.62,1.45c0.83,0.09,2.52,0.15,4.07,0.15c1.07,0,3.31-0.09,3.8-0.15c0.92-0.11,1.34-0.34,1.51-0.85
		c0.11-0.32,0.11-0.32,0.15-1.83H350.24z"/>
	<path class="st0" d="M358.92,370.83v11.09h9.9v1.47h-11.57v-12.55H358.92z"/>
	<path class="st0" d="M377.07,370.83v12.55h-1.67v-12.55H377.07z"/>
	<path class="st0" d="M398.99,379.1c-0.09,2.41-0.19,2.88-0.77,3.45c-0.73,0.7-1.92,0.88-5.8,0.88c-4.95,0-6.27-0.19-7.1-1
		c-0.71-0.7-0.98-2.09-0.98-5.12c0-3.48,0.3-4.97,1.17-5.66c0.58-0.47,1.26-0.62,3.03-0.75c0.83-0.04,2.52-0.09,3.61-0.09
		c2.2,0,3.71,0.11,4.65,0.32c0.94,0.23,1.69,0.88,1.86,1.68c0.13,0.51,0.15,0.7,0.17,2.2h-1.56v-0.43c-0.02-1.2-0.19-1.6-0.87-1.88
		c-0.62-0.24-2.07-0.38-4.33-0.38c-3.31,0-4.84,0.17-5.34,0.56c-0.47,0.39-0.7,1.6-0.7,3.78c0,1.03,0.11,3.05,0.19,3.67
		c0.15,0.96,0.56,1.35,1.62,1.45c0.83,0.09,2.52,0.15,4.07,0.15c1.07,0,3.31-0.09,3.8-0.15c0.92-0.11,1.34-0.34,1.51-0.85
		c0.11-0.32,0.11-0.32,0.15-1.83H398.99z"/>
	<path class="st0" d="M407.68,370.83v5.4h2.18l8.13-5.4h2.94l-9.33,6.12l9.82,6.44h-2.97l-8.58-5.68h-2.18v5.68H406v-12.55H407.68z"
		/>
</g>
</svg>
