<?xml version="1.0" encoding="utf-8"?>
<!-- Generator: Adobe Illustrator 28.0.0, SVG Export Plug-In . SVG Version: 6.00 Build 0)  -->
<svg version="1.1" id="Layer_1" xmlns="http://www.w3.org/2000/svg" xmlns:xlink="http://www.w3.org/1999/xlink" x="0px" y="0px"
	 viewBox="0 0 1000 1000" style="enable-background:new 0 0 1000 1000;" xml:space="preserve">
<style type="text/css">
	.st0{fill:#072C49;}
	.st1{fill:#FFFFFF;}
	.st2{fill:#F5AD2A;}
</style>
<rect x="-5.9" y="-5.13" class="st0" width="1011.81" height="1010.25"/>
<g>
	<polygon class="st1" points="446.09,452.88 427.22,526.48 474.75,526.48 493.62,452.88 	"/>
	<g>
		<polygon class="st1" points="470.11,359.16 459.91,398.97 507.43,398.97 517.64,359.16 		"/>
	</g>
	<polygon class="st1" points="403.48,359.16 607.69,359.16 617.88,319.42 413.67,319.42 	"/>
	<g>
		<path class="st2" d="M607.91,440.64l-27.05,1.54c-0.9,0.05-1.59-0.79-1.36-1.66l7.54-29.43c0.16-0.62,0.73-1.03,1.36-1l19.51,1.12
			c1.8,0.07,3.04-1.81,2.25-3.45c-6.73-13.74-20.84-23.19-37.16-23.19c-11.45,0-19.92,7.2-29.29,12.17
			c-7.15,3.79-14.5,6.27-21.6,7.8H409.51l-0.98,3.82h41.74c1.82,0,3.15,1.72,2.7,3.48c-0.32,1.23-1.43,2.09-2.7,2.09H407.1
			l-1.1,4.27h20.44c1.82,0,3.15,1.72,2.7,3.48c-0.32,1.23-1.43,2.09-2.7,2.09h-21.87l-1.1,4.28h57.56c1.82,0,3.15,1.71,2.7,3.48
			c-0.32,1.23-1.43,2.1-2.7,2.1h-58.99l-1.1,4.27h33.65c1.82,0,3.15,1.72,2.7,3.48c-0.32,1.23-1.43,2.09-2.7,2.09h-35.08l-0.98,3.82
			h113.3c9.48,0.86,19.25,2.69,27.68,6.35c11.07,4.81,19.07,13.08,31.8,13.59c17.03,0.68,31.88-8.96,38.84-23.17
			C610.96,442.46,609.73,440.57,607.91,440.64z"/>
		<path class="st2" d="M398.18,413.94h5.04c1.27,0,2.38-0.86,2.69-2.09c0.45-1.76-0.88-3.47-2.69-3.47h-5.04
			c-1.36,0-2.53,0.99-2.75,2.34v0C395.16,412.41,396.47,413.94,398.18,413.94z"/>
		<path class="st2" d="M400.7,423.76c1.27,0,2.38-0.86,2.69-2.09c0.45-1.76-0.88-3.47-2.69-3.47H384.9c-1.36,0-2.53,0.99-2.75,2.34
			c-0.27,1.69,1.03,3.23,2.75,3.23H400.7z"/>
		<path class="st2" d="M398.17,428.01h-2.64c-1.36,0-2.53,0.99-2.75,2.34c-0.27,1.69,1.03,3.23,2.75,3.23h2.64
			c1.27,0,2.38-0.86,2.69-2.09v0C401.31,429.73,399.99,428.01,398.17,428.01z"/>
		<path class="st2" d="M395.76,437.83h-9.48c-1.36,0-2.53,0.99-2.75,2.34c-0.27,1.69,1.03,3.23,2.75,3.23h9.48
			c1.27,0,2.38-0.86,2.69-2.09C398.91,439.54,397.58,437.83,395.76,437.83z"/>
	</g>
	<path class="st2" d="M296.09,579.02v14.3h-45.72v11.48h43.54l-0.09,13.94h-43.45v21.04h-18.49v-60.75H296.09z"/>
	<path class="st2" d="M358.2,629.48h-40.17l-5.19,10.29h-21.13l32.15-60.75h28.78l31.79,60.75h-21.04L358.2,629.48z M339.98,593.14
		h-3.64l-11.75,23.04h27.14L339.98,593.14z"/>
	<path class="st2" d="M403.19,619.64c0,3.37,0.36,4.83,1.82,5.74c2,1.18,2.19,1.18,16.76,1.28c19.86-0.09,19.86-0.09,19.86-5.38
		c0-3.64-1.37-4.55-7.29-4.64c-2.1,0-8.11-0.27-14.57-0.55c-6.74-0.36-12.75-0.64-14.76-0.64c-8.84-0.27-13.12-1.55-15.85-4.64
		c-2.28-2.73-3.37-6.65-3.37-12.75c0-9.02,2.1-14.48,6.38-16.85c4.74-2.55,10.02-3.1,31.97-3.1c16.94,0,23.32,0.82,27.69,3.37
		c3.92,2.46,5.56,6.38,5.56,13.84c0,0.36,0,1.64-0.09,2.82h-17.85c-0.09-3.01-0.36-3.82-1.37-4.74c-1.46-1.18-3.55-1.37-17.49-1.37
		c-15.57,0-16.85,0.36-16.85,4.83c0,2.19,0.82,3.37,2.55,3.92c1.64,0.46,6.38,0.73,19.67,1.09c19.58,0.55,23.68,1.09,27.51,3.37
		c4.46,2.64,6.1,6.83,6.1,15.48c0,10.29-2.37,15.48-8.29,17.85c-3.73,1.64-11.02,2.1-29.97,2.1c-18.22,0-25.69-0.82-30.06-3.28
		c-4.55-2.55-6.01-6.19-6.01-14.85v-2.91H403.19z"/>
	<path class="st2" d="M535.98,579.02v15.48h-27.05v45.27h-19.4V594.5h-27.05v-15.48H535.98z"/>
	<path class="st1" d="M627.69,579.02v7.1h-30.33v53.65h-8.11v-53.65h-30.51v-7.1H627.69z"/>
	<path class="st1" d="M633.24,579.02h59.48v7.1h-51.37v18.58h49.18v7.11h-49.18v20.86h51.46v7.11h-59.57V579.02z"/>
	<path class="st1" d="M768.12,619c-0.46,11.66-0.91,13.94-3.73,16.67c-3.55,3.37-9.29,4.28-28.05,4.28
		c-23.95,0-30.33-0.91-34.34-4.83c-3.46-3.37-4.74-10.11-4.74-24.78c0-16.85,1.46-24.05,5.65-27.42c2.82-2.28,6.1-3,14.66-3.64
		c4.01-0.18,12.21-0.46,17.49-0.46c10.66,0,17.94,0.55,22.5,1.55c4.56,1.09,8.2,4.28,9.02,8.11c0.64,2.46,0.73,3.37,0.82,10.66
		h-7.56v-2.09c-0.09-5.83-0.91-7.74-4.19-9.11c-3.01-1.18-10.02-1.82-20.95-1.82c-16.03,0-23.41,0.82-25.87,2.73
		c-2.28,1.91-3.37,7.74-3.37,18.31c0,5.01,0.55,14.76,0.91,17.76c0.73,4.64,2.73,6.56,7.83,7.01c4.01,0.46,12.21,0.73,19.67,0.73
		c5.19,0,16.03-0.45,18.4-0.73c4.46-0.55,6.47-1.64,7.29-4.1c0.55-1.55,0.55-1.55,0.73-8.84H768.12z"/>
	<g>
		<path class="st1" d="M271.77,663.54l14.85,14.9h0.53v-14.9h2.27v16.99h-3.85l-14.8-14.85h-0.51v14.85H268v-16.99H271.77z"/>
		<path class="st1" d="M299.59,663.54h16.63v1.99h-14.37v5.2h13.76v1.99h-13.76v5.83h14.39v1.99h-16.66V663.54z"/>
		<path class="st1" d="M325.49,663.54h16.63v1.99h-14.37v5.2h13.76v1.99h-13.76v5.83h14.39v1.99h-16.66V663.54z"/>
		<path class="st1" d="M351.38,663.54h11.72c5.25,0,6.55,0.28,7.82,1.63c1.12,1.2,1.48,2.85,1.48,6.85c0,3.77-0.54,5.91-1.81,7.11
			c-1.22,1.15-2.52,1.4-7.31,1.4h-11.9V663.54z M363.17,678.54c3.26,0,3.39,0,4.33-0.23c1.83-0.43,2.57-2.27,2.57-6.39
			c0-2.62-0.36-4.43-1.02-5.27c-0.54-0.64-1.3-0.94-2.75-1.07c-0.54-0.05-1.17-0.05-3.26-0.05h-9.4v13.02H363.17z"/>
		<path class="st1" d="M396.21,663.54h15.95v1.99h-13.68v5.4h13.07v1.99h-13.07v7.62h-2.27V663.54z"/>
		<path class="st1" d="M423.33,663.54v16.99h-2.27v-16.99H423.33z"/>
		<path class="st1" d="M436.54,663.54l7.36,7.16l7.46-7.16h3.36l-8.74,8.13l9.2,8.86h-3.23l-8.15-7.87l-8.02,7.87h-3.34l9.37-8.86
			l-8.51-8.13H436.54z"/>
		<path class="st1" d="M467.45,677.65v2.88h-2.78v-2.88H467.45z M467.06,663.54v12.18h-2.04v-12.18H467.06z"/>
		<path class="st1" d="M507.35,663.54v8.79c-0.03,4.25-0.05,4.82-0.43,5.73c-0.84,2.06-2.42,2.52-8.61,2.52
			c-3.64,0-5.27-0.36-6.16-1.35c-0.79-0.89-0.99-1.91-1.02-4.94h2.14v0.56c0.05,2.39,0.28,2.93,1.38,3.34
			c0.66,0.25,1.89,0.36,4.13,0.36c0.54,0,3.18-0.1,3.67-0.13c1.48-0.13,2.09-0.48,2.39-1.38c0.23-0.69,0.25-1.12,0.25-4.71v-8.79
			H507.35z"/>
		<path class="st1" d="M519.43,663.54v8.35c0,4.84,0.02,5.04,0.48,5.71c0.48,0.71,2.11,0.94,6.7,0.94c5.53,0,7.18-0.21,7.8-0.92
			c0.48-0.56,0.51-0.84,0.53-5.73v-8.35h2.27v8.35c-0.02,5.25-0.1,5.86-0.97,7.08c-1.3,1.38-2.04,1.5-9.04,1.61
			c-6.93-0.05-7.59-0.18-8.87-1.43c-1.07-1.3-1.15-1.86-1.17-7.26v-8.35H519.43z"/>
		<path class="st1" d="M548.96,675.23v0.36c0.05,1.94,0.2,2.32,0.99,2.68c0.66,0.28,2.6,0.41,6.19,0.41c2.22,0,4.48-0.15,5.45-0.38
			c1.1-0.23,1.63-1.07,1.63-2.52c0-1.45-0.3-2.11-1.15-2.42c-0.84-0.3-0.84-0.3-9.22-0.3c-4.48,0-6.14-1.27-6.14-4.74
			c0-1.53,0.43-2.65,1.27-3.34s1.68-0.97,3.52-1.2c1.27-0.15,3.62-0.28,5.35-0.28c3.82,0,5.71,0.36,6.88,1.3
			c0.97,0.76,1.25,1.6,1.27,3.8h-2.27v-0.25c0-1.25-0.13-1.68-0.54-1.99c-0.81-0.66-2.37-0.92-5.5-0.92c-4.35,0-6.34,0.31-7.13,1.07
			c-0.36,0.36-0.53,0.97-0.53,1.84c0,1.5,0.28,2.01,1.35,2.34c0.81,0.28,2.11,0.38,4.46,0.41c1.09,0,1.09,0,5.53,0.02
			c2.42,0,3.57,0.41,4.38,1.5c0.53,0.71,0.79,1.68,0.79,2.98c0,2.09-0.59,3.36-1.89,4.08c-1.25,0.66-3.69,0.92-8.97,0.92
			c-3.75,0-5.22-0.18-6.29-0.79c-1.25-0.69-1.66-1.63-1.66-3.8c0-0.05,0-0.46,0.02-0.76H548.96z"/>
		<path class="st1" d="M593.27,663.54v1.99h-8.48v15h-2.27v-15h-8.53v-1.99H593.27z"/>
		<path class="st1" d="M635.66,674.72c-0.13,3.26-0.25,3.9-1.04,4.66c-0.99,0.94-2.6,1.2-7.85,1.2c-6.7,0-8.48-0.25-9.6-1.35
			c-0.97-0.94-1.32-2.83-1.32-6.93c0-4.71,0.41-6.72,1.58-7.67c0.79-0.64,1.71-0.84,4.1-1.02c1.12-0.05,3.41-0.13,4.89-0.13
			c2.98,0,5.02,0.15,6.29,0.43c1.27,0.31,2.29,1.2,2.52,2.27c0.18,0.69,0.2,0.94,0.23,2.98h-2.11v-0.59
			c-0.02-1.63-0.25-2.16-1.17-2.55c-0.84-0.33-2.8-0.51-5.86-0.51c-4.48,0-6.55,0.23-7.23,0.76c-0.64,0.53-0.94,2.16-0.94,5.12
			c0,1.4,0.15,4.13,0.25,4.97c0.2,1.3,0.76,1.83,2.19,1.96c1.12,0.13,3.41,0.21,5.5,0.21c1.45,0,4.48-0.13,5.15-0.21
			c1.25-0.15,1.81-0.46,2.04-1.15c0.15-0.43,0.15-0.43,0.2-2.47H635.66z"/>
		<path class="st1" d="M647.41,663.54v15h13.4v1.99h-15.66v-16.99H647.41z"/>
		<path class="st1" d="M671.98,663.54v16.99h-2.27v-16.99H671.98z"/>
		<path class="st1" d="M701.65,674.72c-0.13,3.26-0.25,3.9-1.04,4.66c-0.99,0.94-2.6,1.2-7.85,1.2c-6.7,0-8.48-0.25-9.6-1.35
			c-0.97-0.94-1.32-2.83-1.32-6.93c0-4.71,0.41-6.72,1.58-7.67c0.79-0.64,1.71-0.84,4.1-1.02c1.12-0.05,3.41-0.13,4.89-0.13
			c2.98,0,5.02,0.15,6.29,0.43c1.27,0.31,2.29,1.2,2.52,2.27c0.18,0.69,0.2,0.94,0.23,2.98h-2.12v-0.59
			c-0.02-1.63-0.25-2.16-1.17-2.55c-0.84-0.33-2.8-0.51-5.86-0.51c-4.48,0-6.55,0.23-7.23,0.76c-0.64,0.53-0.94,2.16-0.94,5.12
			c0,1.4,0.15,4.13,0.25,4.97c0.2,1.3,0.76,1.83,2.19,1.96c1.12,0.13,3.41,0.21,5.5,0.21c1.45,0,4.48-0.13,5.15-0.21
			c1.25-0.15,1.81-0.46,2.04-1.15c0.15-0.43,0.15-0.43,0.2-2.47H701.65z"/>
		<path class="st1" d="M713.41,663.54v7.31h2.96l11-7.31h3.97l-12.63,8.28l13.3,8.71h-4.02l-11.62-7.69h-2.96v7.69h-2.27v-16.99
			H713.41z"/>
	</g>
</g>
</svg>
